<svg width="395" height="339" viewBox="0 0 395 339" fill="none" xmlns="http://www.w3.org/2000/svg">
<g clip-path="url(#clip0_10_88)">
<path d="M54.3283 332.076C53.5422 332.125 53.1077 331.147 53.7025 330.577L53.7616 330.341L53.7381 330.285C52.9431 328.386 50.2487 328.399 49.4604 330.301C48.7607 331.989 47.87 333.679 47.6506 335.464C47.5523 336.251 47.5966 337.054 47.7711 337.827C46.1317 334.24 45.269 330.324 45.269 326.385C45.269 325.395 45.3231 324.405 45.4337 323.418C45.5246 322.611 45.65 321.808 45.8122 321.013C46.6896 316.715 48.5895 312.621 51.33 309.201C52.6474 308.48 53.746 307.352 54.4097 306.001C54.6481 305.513 54.8349 304.989 54.9233 304.455C54.7734 304.475 54.358 302.188 54.4711 302.047C54.2622 301.73 53.8882 301.572 53.66 301.262C52.5251 299.721 50.9616 299.99 50.1453 302.084C48.4016 302.966 48.3847 304.428 49.4547 305.834C50.1354 306.728 50.2289 307.938 50.8261 308.896C50.7647 308.975 50.7008 309.051 50.6393 309.13C49.5125 310.577 48.538 312.133 47.7164 313.768C47.9486 311.951 47.6058 309.763 47.0214 308.352C46.3562 306.745 45.1093 305.391 44.0112 304.001C42.6923 302.332 39.9877 303.06 39.7553 305.176L39.7487 305.238C39.9118 305.33 40.0716 305.428 40.2277 305.531C41.1179 306.121 40.8103 307.503 39.7554 307.666L39.7315 307.67C39.7905 308.258 39.8913 308.842 40.0387 309.415C38.6301 314.872 41.6713 316.859 46.0137 316.949C46.1095 316.998 46.203 317.047 46.2988 317.094C45.8589 318.335 45.5074 319.607 45.2469 320.897C45.0134 322.037 44.8511 323.189 44.7602 324.346C44.6471 325.806 44.657 327.273 44.7799 328.731L44.7725 328.679C44.4604 327.074 43.5903 325.575 42.327 324.536C40.445 322.987 37.7861 322.417 35.7558 321.172C34.7784 320.573 33.5261 321.348 33.6966 322.482L33.7049 322.537C34.0072 322.66 34.3022 322.803 34.5873 322.963C34.7504 323.055 34.9102 323.153 35.0662 323.256C35.9565 323.846 35.6488 325.228 34.594 325.391L34.5701 325.395L34.5209 325.402C35.0395 326.636 35.7621 327.78 36.6666 328.768C37.5474 333.531 41.3304 333.983 45.3771 332.596H45.3796C45.822 334.526 46.4684 336.412 47.2992 338.209H54.1565C54.1811 338.132 54.2032 338.054 54.2253 337.977C53.5912 338.017 52.9521 337.98 52.3278 337.864C52.8366 337.239 53.3454 336.608 53.8542 335.983C53.8664 335.971 53.8763 335.959 53.8861 335.946C54.1442 335.626 54.4047 335.309 54.6628 334.989C54.6789 334.006 54.5613 333.026 54.3283 332.076Z" fill="#F2F2F2"/>
<path d="M346.201 332.076C346.987 332.125 347.422 331.147 346.827 330.577L346.768 330.341L346.791 330.285C347.586 328.386 350.281 328.399 351.069 330.301C351.768 331.989 352.659 333.679 352.879 335.464C352.977 336.251 352.933 337.054 352.758 337.827C354.398 334.24 355.26 330.324 355.26 326.385C355.26 325.395 355.206 324.405 355.096 323.418C355.005 322.611 354.879 321.808 354.717 321.013C353.84 316.715 351.94 312.621 349.199 309.201C347.882 308.48 346.783 307.352 346.12 306.001C345.881 305.513 345.694 304.989 345.606 304.455C345.756 304.475 346.171 302.188 346.058 302.047C346.267 301.73 346.641 301.572 346.869 301.262C348.004 299.721 349.568 299.99 350.384 302.084C352.128 302.966 352.144 304.428 351.075 305.834C350.394 306.728 350.3 307.938 349.703 308.896C349.764 308.975 349.828 309.051 349.89 309.13C351.017 310.577 351.991 312.133 352.813 313.768C352.581 311.951 352.923 309.763 353.508 308.352C354.173 306.745 355.42 305.391 356.518 304.001C357.837 302.332 360.541 303.06 360.774 305.176L360.78 305.238C360.617 305.33 360.458 305.428 360.301 305.531C359.411 306.121 359.719 307.503 360.774 307.666L360.798 307.67C360.739 308.258 360.638 308.842 360.49 309.415C361.899 314.872 358.858 316.859 354.516 316.949C354.42 316.998 354.326 317.047 354.23 317.094C354.67 318.335 355.022 319.607 355.282 320.897C355.516 322.037 355.678 323.189 355.769 324.346C355.882 325.806 355.872 327.273 355.749 328.731L355.757 328.679C356.069 327.074 356.939 325.575 358.202 324.536C360.084 322.987 362.743 322.417 364.773 321.172C365.751 320.573 367.003 321.348 366.833 322.482L366.824 322.537C366.522 322.66 366.227 322.803 365.942 322.963C365.779 323.055 365.619 323.153 365.463 323.256C364.573 323.846 364.88 325.228 365.935 325.391L365.959 325.395L366.008 325.402C365.49 326.636 364.767 327.78 363.863 328.768C362.982 333.531 359.199 333.983 355.152 332.596H355.15C354.707 334.526 354.061 336.412 353.23 338.209H346.373C346.348 338.132 346.326 338.054 346.304 337.977C346.938 338.017 347.577 337.98 348.201 337.864C347.692 337.239 347.184 336.608 346.675 335.983C346.663 335.971 346.653 335.959 346.643 335.946C346.385 335.626 346.124 335.309 345.866 334.989C345.85 334.006 345.968 333.026 346.201 332.076Z" fill="#F2F2F2"/>
<path d="M213.442 334.986L219.328 334.985L222.128 312.244L213.441 312.245L213.442 334.986Z" fill="#FFB6B6"/>
<path d="M233.609 334.852C233.792 335.161 233.889 336.159 233.889 336.519C233.889 337.624 232.994 338.52 231.891 338.52H213.662C212.909 338.52 212.299 337.908 212.299 337.154V336.394C212.299 336.394 211.397 334.11 213.254 331.294C213.254 331.294 215.561 333.499 219.009 330.045L220.026 328.2L227.386 333.592L231.466 334.095C232.358 334.205 233.149 334.078 233.609 334.852Z" fill="#2F2E41"/>
<path d="M172.79 334.986L178.676 334.985L181.476 312.244L172.789 312.245L172.79 334.986Z" fill="#FFB6B6"/>
<path d="M192.957 334.852C193.14 335.161 193.237 336.159 193.237 336.519C193.237 337.624 192.342 338.52 191.239 338.52H173.01C172.257 338.52 171.647 337.908 171.647 337.154V336.394C171.647 336.394 170.746 334.11 172.602 331.294C172.602 331.294 174.91 333.499 178.358 330.045L179.374 328.2L186.734 333.592L190.814 334.095C191.706 334.205 192.498 334.078 192.957 334.852Z" fill="#2F2E41"/>
<path d="M0.657905 339H394.342C394.705 339 395 338.705 395 338.341C395 337.977 394.705 337.682 394.342 337.682H0.657905C0.294552 337.682 0 337.977 0 338.341C0 338.705 0.294552 339 0.657905 339Z" fill="#E6E6E6"/>
<path d="M215.201 227.584L217.383 230.458C217.383 230.458 217.58 231.8 220.889 242.734L222.704 324.918H211.723L197.047 259.161L181.814 326.237L172.296 326.799L172.742 250.561C172.742 250.561 171.74 247.908 172.593 244.799C175.856 232.899 175.668 236.036 175.802 231.963C175.971 226.798 215.201 227.584 215.201 227.584Z" fill="#2F2E41"/>
<path d="M197.892 158.522C204.256 158.522 209.414 153.355 209.414 146.982C209.414 140.608 204.256 135.441 197.892 135.441C191.529 135.441 186.37 140.608 186.37 146.982C186.37 153.355 191.529 158.522 197.892 158.522Z" fill="#FEB8B8"/>
<path d="M191.697 160.694L185.322 164.223C180.002 164.609 176.188 166.026 172.798 167.736L176.536 200.563L175.856 232.899C175.856 232.899 197.056 247.446 217.384 230.457V186.521L216.43 169.048C216.318 167.011 214.52 165.43 212.5 165.698C211.347 165.851 210.019 165.821 208.662 165.368L204.443 160.463L191.697 160.694Z" fill="#00B0FF"/>
<path d="M227.745 133.612C228.387 135.064 228.65 136.542 228.564 137.823L235.562 151.271L229.075 154.419L222.676 140.438C221.671 139.641 220.754 138.455 220.111 137.002C218.642 133.684 219.16 130.235 221.268 129.299C223.376 128.363 226.276 130.294 227.745 133.612Z" fill="#FFB6B6"/>
<path d="M208.662 165.368L210.592 166.252C212.363 164.345 217.698 164.645 220.286 164.893L231.661 165.979L226.349 149.335L234.346 146.112L243.901 164.53C244.479 167.655 243.182 170.83 240.583 172.653L216.205 186.519L213.371 167.525L208.662 165.368Z" fill="#00B0FF"/>
<path d="M149.71 243.439C149.831 241.855 150.3 240.429 150.981 239.342L151.186 224.178L158.387 224.487L157.404 239.836C157.911 241.015 158.157 242.495 158.036 244.079C157.758 247.698 155.67 250.488 153.37 250.311C151.071 250.135 149.432 247.058 149.71 243.439Z" fill="#FFB6B6"/>
<path d="M178.134 171.883L174.825 166.849C174.825 166.849 169.428 167.881 166.56 171.957C163.693 176.033 152.853 201.029 152.853 201.029L150.772 229.247L158.834 227.584L162.724 206.184L175.233 189.063L178.134 171.883Z" fill="#00B0FF"/>
<path d="M209.414 148.512C209.847 146.312 203.169 143.11 203.18 143.114C204.217 143.446 202.587 145.348 201.522 145.124C201.522 145.124 199.957 145.921 200.81 146.607C197.87 146.355 193.943 143.557 191.004 143.305C189.822 143.201 189.364 146.056 188.621 146.982C187.497 148.398 186.37 145.581 186.786 149.335H186.618C186.004 147.853 185.391 146.346 185.191 144.754C184.997 143.162 185.268 141.448 186.282 140.205C186.618 139.785 185.298 138.4 185.654 137.999C186.784 136.699 188.976 135.987 189.984 134.596C191.317 132.753 192.835 134.054 195.613 132.504C196.339 132.099 197.602 131.953 198.407 132.163L200.287 132.655C199.92 133.205 200.374 133.932 201.028 133.842L203.478 133.509C204.401 133.807 205.28 134.246 205.693 135.094C205.945 135.599 205.991 136.188 206.184 136.718C206.54 137.695 207.379 138.4 208.051 139.19C209.857 139.716 209.954 141.069 209.954 143.336C211.637 144.282 209.881 146.396 209.414 148.512Z" fill="#2F2E41"/>
<path d="M20.8681 41.8414C21.3926 40.3664 22.8552 39.4958 24.3443 39.663C24.9648 39.7327 25.5849 39.7881 26.2083 39.7513C41.7564 38.8355 61.0141 47.7523 81.5147 59.9635C62.7477 44.7535 45.5714 31.2985 25.3696 45.1256C23.9267 46.1133 21.8822 45.7645 21.0429 44.229C20.7057 43.6122 20.5839 42.8729 20.785 42.1105C20.8087 42.0205 20.8364 41.9307 20.8681 41.8414Z" fill="#E6E6E6"/>
<path d="M124.566 5.35876C125.848 6.17715 126.375 7.73356 125.948 9.12104L125.9 9.27759C125.472 10.6704 124.539 11.8406 123.304 12.6109C105.625 23.6348 126.094 37.7428 93.374 60.515C109.218 43.5332 122.251 4.20677 124.231 5.17058C124.345 5.22609 124.457 5.28877 124.566 5.35876Z" fill="#E6E6E6"/>
<path d="M151.665 91.5634C151.006 92.9351 149.526 93.6443 148.1 93.3842L147.939 93.3548C146.507 93.0943 145.236 92.306 144.326 91.1689C131.299 74.8948 119.743 96.9266 93.2847 67.0888C112 80.8308 152.532 89.1238 151.812 91.2072C151.77 91.3272 151.722 91.4461 151.665 91.5634Z" fill="#E6E6E6"/>
<path d="M127.855 90.5465C127.176 90.9237 126.082 90.8708 125.199 90.4618L125.099 90.4156C124.212 90.0053 123.526 89.4296 123.138 88.8001C117.585 79.7895 106.057 85.6366 94.1968 68.5561C103.919 77.8434 128.862 89.8093 128.015 90.4433C127.966 90.4798 127.913 90.5143 127.855 90.5465Z" fill="#E6E6E6"/>
<path d="M133.205 54.6062C133.037 55.365 132.273 56.1505 131.381 56.5419L131.281 56.586C130.386 56.9791 129.501 57.1122 128.773 56.9859C118.357 55.1772 115.086 67.6991 94.4561 65.2712C107.843 64.1362 133.322 53.3619 133.234 54.4175C133.229 54.4784 133.22 54.5413 133.205 54.6062Z" fill="#E6E6E6"/>
<path d="M28.9597 101.673C28.2119 100.348 28.476 98.7254 29.5036 97.7014L29.6196 97.5858C30.6506 96.5575 32.0224 95.9629 33.4741 95.8638C54.2512 94.4463 42.7937 72.363 82.3578 67.6474C60.4074 75.1881 30.464 103.779 29.1678 101.997C29.0932 101.894 29.0236 101.786 28.9597 101.673Z" fill="#E6E6E6"/>
<path d="M112.517 101.435C111.748 101.948 110.762 101.846 110.106 101.248L110.032 101.18C109.373 100.58 108.962 99.7523 108.846 98.8563C107.187 86.032 94.3419 93.968 89.9692 69.624C95.3586 82.9441 113.726 100.423 112.704 101.294C112.645 101.344 112.582 101.391 112.517 101.435Z" fill="#E6E6E6"/>
<path d="M89.2462 122.528C88.069 122.538 87.078 121.745 86.781 120.657L86.7475 120.534C86.4488 119.443 86.5721 118.282 87.0594 117.254C94.0334 102.544 74.8 102.022 86.7231 73.249C83.4221 91.072 91.2376 122.297 89.5437 122.508C89.4461 122.52 89.3469 122.527 89.2462 122.528Z" fill="#00B0FF"/>
<path d="M46.6353 102.425C45.8769 101.523 45.8542 100.253 46.5011 99.3296L46.574 99.2255C47.2229 98.2987 48.1938 97.6535 49.2948 97.3737C65.054 93.3688 53.1857 78.2004 82.9141 69.042C67.105 77.8656 48.0833 103.813 46.8402 102.642C46.7686 102.574 46.7002 102.502 46.6353 102.425Z" fill="#00B0FF"/>
<path d="M56.197 89.2555C55.7173 88.8066 55.7044 88.1313 56.1155 87.613L56.1619 87.5545C56.5742 87.0341 57.1902 86.6504 57.8884 86.4559C67.8812 83.6715 60.3764 76.0849 79.2289 69.9784C69.1989 75.331 57.1132 89.9351 56.3267 89.3626C56.2814 89.3296 56.2381 89.2939 56.197 89.2555Z" fill="#00B0FF"/>
<path d="M70.1718 98.8526C69.5652 98.6012 69.3162 97.9735 69.5192 97.3436L69.5421 97.2725C69.7455 96.6402 70.1877 96.0641 70.7731 95.6362C79.1515 89.512 69.4636 85.051 84.9711 72.6981C77.4588 81.2397 71.268 99.1664 70.3307 98.9072C70.2768 98.8923 70.2237 98.8741 70.1718 98.8526Z" fill="#E6E6E6"/>
<path d="M29.2881 56.3048L30.812 61.0027H35.7436L31.7539 63.9061L33.2778 68.6039L29.2881 65.7005L25.2983 68.6039L26.8223 63.9061L22.8325 61.0027H27.7641L29.2881 56.3048Z" fill="#00B0FF"/>
<path d="M97.2483 0L98.7722 4.69782H103.704L99.7141 7.60122L101.238 12.299L97.2483 9.39563L93.2585 12.299L94.7825 7.60122L90.7927 4.69782H95.7243L97.2483 0Z" fill="#E6E6E6"/>
<path d="M133.326 50.4222L134.85 55.1201H139.781L135.792 58.0235L137.316 62.7213L133.326 59.8179L129.336 62.7213L130.86 58.0235L126.87 55.1201H131.802L133.326 50.4222Z" fill="#00B0FF"/>
<path d="M60.3315 101.685L61.8555 106.383H66.7871L62.7973 109.286L64.3213 113.984L60.3315 111.081L56.3418 113.984L57.8657 109.286L53.876 106.383H58.8076L60.3315 101.685Z" fill="#00B0FF"/>
<path d="M88.019 50.4222L89.543 55.1201H94.4746L90.4848 58.0235L92.0088 62.7213L88.019 59.8179L84.0293 62.7213L85.5532 58.0235L81.5635 55.1201H86.4951L88.019 50.4222Z" fill="#00B0FF"/>
<path d="M126.094 0L127.618 4.69782H132.549L128.56 7.60122L130.083 12.299L126.094 9.39563L122.104 12.299L123.628 7.60122L119.638 4.69782H124.57L126.094 0Z" fill="#E6E6E6"/>
<path d="M26.7032 92.8464L28.6358 97.3909L33.5481 96.9542L29.8302 100.2L31.7628 104.744L27.5324 102.205L23.8145 105.451L24.9179 100.636L20.6875 98.0974L25.5998 97.6608L26.7032 92.8464Z" fill="#E6E6E6"/>
<path d="M68.8916 6.052C69.7811 5.61335 70.7809 5.90926 71.3469 6.70404L71.4108 6.7937C71.9793 7.59112 72.2495 8.59996 72.2021 9.63174C71.5237 24.3993 86.2703 17.7981 86.246 46.0547C83.1641 30.0456 67.4541 6.9722 68.6722 6.17715C68.7423 6.13135 68.8155 6.08952 68.8916 6.052Z" fill="#00B0FF"/>
<path d="M56.0312 27.9411C56.4255 27.448 57.0725 27.38 57.601 27.7281L57.6606 27.7674C58.1911 28.1164 58.606 28.6705 58.8456 29.3183C62.275 38.5893 68.985 30.8282 76.2737 48.2486C70.3775 39.154 55.4486 28.8682 55.9383 28.0732C55.9665 28.0274 55.9974 27.9833 56.0312 27.9411Z" fill="#E6E6E6"/>
<path d="M44.6801 54.8889C44.7341 54.2595 45.2342 53.8427 45.8667 53.8377L45.938 53.8371C46.5728 53.8318 47.2252 54.0613 47.7839 54.4663C55.7805 60.2626 57.0498 50.0749 72.7779 60.4958C62.8288 56.2199 44.7104 55.984 44.6762 55.0504C44.6742 54.9967 44.6755 54.9428 44.6801 54.8889Z" fill="#E6E6E6"/>
<path d="M267.995 80.7224C268.336 79.7627 269.288 79.1962 270.257 79.305C270.66 79.3503 271.064 79.3864 271.469 79.3625C281.586 78.7666 294.115 84.5682 307.454 92.5133C295.243 82.6171 284.068 73.8628 270.924 82.8592C269.985 83.5018 268.655 83.2748 268.109 82.2758C267.889 81.8745 267.81 81.3935 267.941 80.8974C267.956 80.8389 267.974 80.7805 267.995 80.7224Z" fill="#E6E6E6"/>
<path d="M335.465 56.9853C336.299 57.5178 336.642 58.5305 336.364 59.4332L336.333 59.5351C336.054 60.4413 335.447 61.2027 334.644 61.7038C323.141 68.8764 336.459 78.0557 315.17 92.8721C325.479 81.8231 333.958 56.2358 335.246 56.8629C335.321 56.899 335.394 56.9398 335.465 56.9853Z" fill="#E6E6E6"/>
<path d="M353.096 113.073C352.667 113.966 351.704 114.427 350.776 114.258L350.672 114.239C349.74 114.069 348.913 113.557 348.321 112.817C339.845 102.228 332.327 116.563 315.112 97.1493C327.289 106.09 353.66 111.486 353.192 112.842C353.165 112.92 353.133 112.997 353.096 113.073Z" fill="#E6E6E6"/>
<path d="M337.604 112.412C337.163 112.657 336.451 112.623 335.876 112.357L335.811 112.327C335.234 112.06 334.788 111.685 334.535 111.275C330.923 105.413 323.422 109.217 315.705 98.104C322.031 104.147 338.26 111.932 337.709 112.345C337.677 112.368 337.642 112.391 337.604 112.412Z" fill="#E6E6E6"/>
<path d="M341.086 89.0276C340.976 89.5213 340.479 90.0324 339.899 90.287L339.833 90.3158C339.251 90.5715 338.675 90.6581 338.202 90.5759C331.425 89.3991 329.296 97.5463 315.874 95.9667C324.584 95.2282 341.162 88.218 341.104 88.9049C341.101 88.9444 341.095 88.9854 341.086 89.0276Z" fill="#E6E6E6"/>
<path d="M273.26 119.651C272.773 118.789 272.945 117.733 273.613 117.067L273.689 116.992C274.36 116.323 275.252 115.936 276.197 115.871C289.715 114.949 282.26 100.581 308.002 97.5127C293.721 102.419 274.238 121.021 273.395 119.862C273.346 119.795 273.301 119.725 273.26 119.651Z" fill="#E6E6E6"/>
<path d="M327.625 119.496C327.125 119.83 326.483 119.764 326.056 119.374L326.008 119.331C325.579 118.94 325.312 118.401 325.236 117.818C324.157 109.474 315.8 114.638 312.955 98.7988C316.461 107.465 328.411 118.838 327.746 119.404C327.708 119.437 327.668 119.468 327.625 119.496Z" fill="#E6E6E6"/>
<path d="M312.484 133.22C311.718 133.226 311.074 132.711 310.88 132.003L310.859 131.923C310.664 131.213 310.744 130.458 311.061 129.789C315.599 120.218 303.085 119.878 310.843 101.157C308.695 112.754 313.78 133.07 312.678 133.207C312.614 133.215 312.55 133.22 312.484 133.22Z" fill="#00B0FF"/>
<path d="M284.76 120.14C284.267 119.553 284.252 118.727 284.673 118.126L284.72 118.059C285.142 117.456 285.774 117.036 286.49 116.854C296.744 114.248 289.022 104.379 308.364 98.4201C298.078 104.161 285.702 121.044 284.893 120.281C284.847 120.237 284.802 120.19 284.76 120.14Z" fill="#00B0FF"/>
<path d="M290.981 111.572C290.669 111.28 290.661 110.84 290.928 110.503L290.958 110.465C291.227 110.126 291.627 109.877 292.082 109.75C298.583 107.939 293.7 103.003 305.967 99.0294C299.441 102.512 291.577 112.014 291.065 111.641C291.036 111.62 291.008 111.597 290.981 111.572Z" fill="#00B0FF"/>
<path d="M300.074 117.816C299.679 117.652 299.517 117.244 299.649 116.834L299.664 116.788C299.796 116.377 300.084 116.002 300.465 115.723C305.916 111.739 299.613 108.836 309.703 100.799C304.815 106.356 300.787 118.02 300.177 117.852C300.142 117.842 300.107 117.83 300.074 117.816Z" fill="#E6E6E6"/>
<path d="M273.473 90.1328L274.465 93.1894H277.673L275.077 95.0785L276.069 98.135L273.473 96.246L270.877 98.135L271.869 95.0785L269.273 93.1894H272.482L273.473 90.1328Z" fill="#00B0FF"/>
<path d="M317.691 53.4987L318.682 56.5553H321.891L319.295 58.4444L320.286 61.501L317.691 59.6119L315.095 61.501L316.086 58.4444L313.49 56.5553H316.699L317.691 53.4987Z" fill="#E6E6E6"/>
<path d="M341.164 86.3054L342.156 89.362H345.364L342.768 91.251L343.76 94.3076L341.164 92.4185L338.568 94.3076L339.56 91.251L336.964 89.362H340.173L341.164 86.3054Z" fill="#00B0FF"/>
<path d="M293.671 119.659L294.663 122.715H297.871L295.276 124.604L296.267 127.661L293.671 125.772L291.075 127.661L292.067 124.604L289.471 122.715H292.68L293.671 119.659Z" fill="#00B0FF"/>
<path d="M311.686 86.3054L312.677 89.362H315.886L313.29 91.251L314.282 94.3076L311.686 92.4185L309.09 94.3076L310.081 91.251L307.486 89.362H310.694L311.686 86.3054Z" fill="#00B0FF"/>
<path d="M336.459 53.4987L337.45 56.5553H340.659L338.063 58.4444L339.055 61.501L336.459 59.6119L333.863 61.501L334.854 58.4444L332.259 56.5553H335.467L336.459 53.4987Z" fill="#E6E6E6"/>
<path d="M271.791 113.908L273.049 116.865L276.245 116.581L273.826 118.692L275.083 121.649L272.331 119.997L269.912 122.109L270.63 118.976L267.877 117.325L271.073 117.041L271.791 113.908Z" fill="#E6E6E6"/>
<path d="M299.241 57.4364C299.819 57.151 300.47 57.3435 300.838 57.8606L300.88 57.919C301.25 58.4378 301.425 59.0942 301.395 59.7655C300.953 69.3739 310.548 65.0789 310.532 83.4637C308.527 73.0475 298.305 58.0351 299.098 57.5178C299.144 57.488 299.191 57.4608 299.241 57.4364Z" fill="#00B0FF"/>
<path d="M290.873 71.6783C291.13 71.3575 291.551 71.3132 291.895 71.5397L291.933 71.5652C292.279 71.7924 292.548 72.1529 292.704 72.5743C294.936 78.6064 299.301 73.5567 304.044 84.8911C300.207 78.9738 290.494 72.2815 290.813 71.7642C290.831 71.7344 290.851 71.7057 290.873 71.6783Z" fill="#E6E6E6"/>
<path d="M283.488 89.2116C283.523 88.802 283.848 88.5308 284.26 88.5276L284.306 88.5272C284.719 88.5238 285.144 88.6731 285.507 88.9366C290.71 92.7079 291.536 86.0794 301.769 92.8596C295.296 90.0776 283.507 89.924 283.485 89.3166C283.484 89.2817 283.485 89.2466 283.488 89.2116Z" fill="#E6E6E6"/>
</g>
<defs>
<clipPath id="clip0_10_88">
<rect width="395" height="339" fill="white"/>
</clipPath>
</defs>
</svg>
